<svg xmlns="http://www.w3.org/2000/svg" viewBox="0 0 380.72 380.72"><path d="M352.08 149.954a133.998 133.998 0 0 0-69.2-35.12 122.758 122.758 0 0 0-31.04-36.4 166.921 166.921 0 0 0-104-34.56 166.921 166.921 0 0 0-104 34.56c-27.12 21.8-43.84 51.8-43.84 85a99.994 99.994 0 0 0 12.44 48 122.67 122.67 0 0 0 32.24 37.56l-7.48 49.44a5.76 5.76 0 0 0 8.6 5.84l49.72-29.12a174.234 174.234 0 0 0 24.36 5.56 182.902 182.902 0 0 0 28 2.12c3.2 0 6.373-.08 9.52-.24a128.684 128.684 0 0 0 42.16 25.72 152.49 152.49 0 0 0 53.92 9.68c8.035 0 16.059-.615 24-1.84a149.89 149.89 0 0 0 20.6-4.68l42.2 24.6a5.76 5.76 0 0 0 8.6-5.84l-6.28-41.68a105.589 105.589 0 0 0 27.4-32 86.36 86.36 0 0 0 10.72-41.44 91.4 91.4 0 0 0-28.64-65.16zM147.8 271.274a171.369 171.369 0 0 1-26.16-2 163.153 163.153 0 0 1-25.08-5.88 5.76 5.76 0 0 0-4.64.52l-41.6 24.16 6.16-40.72a5.8 5.8 0 0 0-2.16-5.6 112.007 112.007 0 0 1-31.68-36 88.47 88.47 0 0 1-10.96-42.48c0-29.56 15.04-56.36 39.4-76a155.359 155.359 0 0 1 96.84-32 155.318 155.318 0 0 1 96.84 32c12.4 9.92 39.4 36 39.4 74.48 0 34.4-18.68 59.32-35.52 73.96a147.643 147.643 0 0 1-59.04 30.12 200.866 200.866 0 0 1-41.8 5.44zm212-20.36v.04a95.11 95.11 0 0 1-26.84 30.4 5.8 5.8 0 0 0-2.36 5.6l5 33.12-33.96-20a5.764 5.764 0 0 0-4.64-.52 138.573 138.573 0 0 1-21.32 5 145.897 145.897 0 0 1-22.24 1.68 140.97 140.97 0 0 1-49.84-8.88 120.727 120.727 0 0 1-30.12-16.44 209.328 209.328 0 0 0 49.16-14.48 137.477 137.477 0 0 0 33.48-21.68c13.6-12 39.52-39.48 39.52-82.8a117.419 117.419 0 0 0-6.6-33.88 119.995 119.995 0 0 1 54.88 30.12 79.998 79.998 0 0 1 25.16 56.88 74.89 74.89 0 0 1-9.28 35.84z"/><circle cx="82" cy="167.314" r="10.2"/><circle cx="213.6" cy="167.314" r="10.2"/><circle cx="147.8" cy="167.314" r="10.2"/></svg>